<svg xmlns='http://www.w3.org/2000/svg' version='1.1' x="0px" y="0px" viewBox="0 0 100 125">
    <g transform="translate(0,-952.36218)">
        <path d="m 50,1024.362 c -0.4628,0 -1.0773,-0.2799 -1.3755,-0.5639 l -17.0003,-15.9997 c -0.7723,-0.747 -0.8618,-1.9572 -0.078,-2.8281 0.7007,-0.7786 2.0673,-0.798 2.8282,-0.078 l 13.6252,12.8435 0,-43.37347 c 0,-1.1046 0.8954,-2 2,-2 1.1045,0 2.0001,0.8954 2.0001,2 l 0,43.37347 13.6252,-12.8435 c 0.7608,-0.7199 2.0938,-0.6688 2.828,0.078 0.7753,0.7885 0.7063,2.0925 -0.078,2.8281 l -17.0002,15.9997 c -0.4611,0.4701 -0.9052,0.556 -1.3748,0.5639 z" style="text-indent:0;text-transform:none;direction:ltr;block-progression:tb;baseline-shift:baseline;color:#ffffff;enable-background:accumulate;" fill="#ffffff" fill-opacity="1" fill-rule="nonzero" stroke="none" marker="none" visibility="visible" display="inline" overflow="visible"/>
        <path style="text-indent:0;text-transform:none;direction:ltr;block-progression:tb;baseline-shift:baseline;color:#ffffff;enable-background:accumulate;" d="m 30,1028.362 c -1.1046,0 -2,0.8954 -2,2 0,1.1046 0.8954,2 2,2 l 40,0 c 1.1046,0 2,-0.8954 2,-2 0,-1.1046 -0.8954,-2 -2,-2 z" fill="#ffffff" fill-opacity="1" stroke="none" marker="none" visibility="visible" display="inline" overflow="visible"/>
    </g>
</svg>
